<?xml version="1.0" standalone="no"?>
<!DOCTYPE svg PUBLIC "-//W3C//DTD SVG 20010904//EN"
 "http://www.w3.org/TR/2001/REC-SVG-20010904/DTD/svg10.dtd">
<svg version="1.0" xmlns="http://www.w3.org/2000/svg"
 width="256.000000pt" height="256.000000pt" viewBox="0 0 256.000000 256.000000"
 preserveAspectRatio="xMidYMid meet">

<g transform="translate(0.000000,256.000000) scale(0.100000,-0.100000)"
fill="#667add" stroke="none">
<path d="M475 2351 c-46 -20 -69 -59 -73 -126 l-4 -64 -51 -3 c-57 -3 -80 -25
-61 -55 10 -16 30 -18 174 -18 144 0 164 2 174 18 8 12 8 22 0 35 -9 13 -28
18 -83 20 l-71 3 0 47 c0 27 5 53 12 60 8 8 49 12 120 12 l108 0 0 -1000 0
-1000 -109 0 c-112 0 -125 4 -132 44 -6 28 -35 44 -56 30 -30 -19 -21 -80 16
-118 l31 -31 870 0 870 0 32 33 33 32 0 1010 0 1010 -33 32 -32 33 -858 2
c-471 1 -866 -2 -877 -6z m1713 -83 c17 -17 17 -1959 0 -1976 -9 -9 -178 -12
-700 -12 l-688 0 0 1000 0 1000 688 0 c522 0 691 -3 700 -12z"/>
<path d="M1052 1908 c-17 -17 -17 -519 0 -536 17 -17 839 -17 856 0 17 17 17
519 0 536 -17 17 -839 17 -856 0z m788 -268 l0 -200 -360 0 -360 0 0 200 0
200 360 0 360 0 0 -200z"/>
<path d="M412 2028 c-7 -7 -12 -40 -12 -79 l0 -68 -51 -3 c-59 -3 -82 -25 -63
-55 10 -16 30 -18 174 -18 144 0 164 2 174 18 8 12 8 22 0 35 -9 13 -28 18
-83 20 l-71 3 0 67 c0 69 -10 92 -40 92 -9 0 -21 -5 -28 -12z"/>
<path d="M412 1748 c-7 -7 -12 -40 -12 -79 l0 -68 -51 -3 c-59 -3 -82 -25 -63
-55 10 -16 30 -18 174 -18 144 0 164 2 174 18 8 12 8 22 0 35 -9 13 -28 18
-83 20 l-71 3 0 67 c0 69 -10 92 -40 92 -9 0 -21 -5 -28 -12z"/>
<path d="M412 1468 c-7 -7 -12 -40 -12 -79 l0 -68 -51 -3 c-59 -3 -82 -25 -63
-55 10 -16 30 -18 174 -18 144 0 164 2 174 18 8 12 8 22 0 35 -9 13 -28 18
-83 20 l-71 3 0 67 c0 69 -10 92 -40 92 -9 0 -21 -5 -28 -12z"/>
<path d="M412 1188 c-7 -7 -12 -40 -12 -79 l0 -68 -51 -3 c-59 -3 -82 -25 -63
-55 10 -16 30 -18 174 -18 144 0 164 2 174 18 8 12 8 22 0 35 -9 13 -28 18
-83 20 l-71 3 0 67 c0 69 -10 92 -40 92 -9 0 -21 -5 -28 -12z"/>
<path d="M412 908 c-7 -7 -12 -40 -12 -79 l0 -68 -51 -3 c-59 -3 -82 -25 -63
-55 10 -16 30 -18 174 -18 144 0 164 2 174 18 8 12 8 22 0 35 -9 13 -28 18
-83 20 l-71 3 0 67 c0 69 -10 92 -40 92 -9 0 -21 -5 -28 -12z"/>
<path d="M412 628 c-7 -7 -12 -40 -12 -79 l0 -68 -51 -3 c-59 -3 -82 -25 -63
-55 10 -16 30 -18 174 -18 144 0 164 2 174 18 8 12 8 22 0 35 -9 13 -28 18
-83 20 l-71 3 0 67 c0 69 -10 92 -40 92 -9 0 -21 -5 -28 -12z"/>
</g>
</svg>
