<?xml version="1.0" standalone="no"?>
<!DOCTYPE svg PUBLIC "-//W3C//DTD SVG 20010904//EN"
 "http://www.w3.org/TR/2001/REC-SVG-20010904/DTD/svg10.dtd">
<svg version="1.0" xmlns="http://www.w3.org/2000/svg"
 width="500.000000pt" height="500.000000pt" viewBox="0 0 500.000000 500.000000"
 preserveAspectRatio="xMidYMid meet">

<g transform="translate(0.000000,500.000000) scale(0.100000,-0.100000)"
fill="#667add" stroke="none">
<path d="M2358 3795 l4 -205 -556 0 -556 0 0 -350 0 -350 553 -2 552 -3 0 -83
0 -83 -610 1 -610 1 -35 -32 c-19 -17 -102 -97 -184 -177 l-148 -145 153 -154
c85 -84 170 -164 190 -178 l36 -26 604 1 604 1 0 -508 0 -508 -202 -3 -203 -2
0 -80 0 -80 534 0 c294 0 541 3 550 6 12 5 16 21 16 75 l0 69 -182 0 c-101 0
-193 3 -206 6 l-22 6 2 512 3 511 550 5 550 5 0 340 0 340 -550 5 -550 5 0 85
0 85 617 5 616 5 79 77 c225 220 263 258 263 267 0 5 -77 83 -171 173 l-171
163 -617 5 -616 5 0 208 0 207 -145 0 -145 0 3 -205z m1623 -422 l139 -137
-67 -69 c-38 -38 -103 -100 -146 -138 l-77 -69 -463 0 c-254 0 -816 3 -1249 7
l-788 6 0 264 0 263 503 3 c276 1 841 3 1255 5 l754 2 139 -137z m-313 -1005
l2 -267 -22 -7 c-12 -3 -578 -3 -1257 1 l-1236 7 -97 90 c-54 50 -114 111
-135 136 l-37 45 135 128 134 129 610 3 c336 1 900 2 1255 2 l645 0 3 -267z"/>
</g>
</svg>
