<?xml version="1.0" standalone="no"?>
<!DOCTYPE svg PUBLIC "-//W3C//DTD SVG 20010904//EN"
 "http://www.w3.org/TR/2001/REC-SVG-20010904/DTD/svg10.dtd">
<svg version="1.0" xmlns="http://www.w3.org/2000/svg"
 width="256.000000pt" height="256.000000pt" viewBox="0 0 256.000000 256.000000"
 preserveAspectRatio="xMidYMid meet">

<g transform="translate(0.000000,256.000000) scale(0.100000,-0.100000)"
fill="#667add" stroke="none">
<path d="M932 1669 c-127 -21 -256 -120 -321 -245 -46 -88 -108 -134 -181
-134 -48 0 -113 21 -125 41 -11 17 -49 27 -67 17 -48 -24 15 -154 132 -269
128 -127 288 -193 470 -193 140 0 275 45 392 131 l47 34 48 -34 c125 -90 248
-130 393 -130 155 0 299 50 422 148 96 77 206 241 194 290 -9 37 -34 38 -90 3
-44 -29 -60 -33 -116 -33 -92 0 -128 25 -182 123 -102 187 -274 281 -458 251
-60 -9 -108 -29 -187 -75 -29 -17 -33 -17 -50 -2 -48 42 -200 93 -258 87 -5
-1 -34 -5 -63 -10z m176 -95 c27 -9 73 -34 101 -55 59 -45 88 -49 120 -15 42
44 126 79 206 84 146 9 246 -53 339 -211 73 -125 135 -167 249 -170 31 -1 57
-4 57 -6 0 -16 -61 -78 -116 -117 -223 -159 -495 -151 -716 22 -31 24 -64 44
-73 44 -9 0 -37 -17 -61 -39 -217 -191 -554 -185 -771 12 -82 75 -83 82 -13
84 109 2 202 64 250 167 80 169 261 254 428 200z"/>
</g>
</svg>
