<?xml version="1.0" standalone="no"?>
<!DOCTYPE svg PUBLIC "-//W3C//DTD SVG 20010904//EN"
 "http://www.w3.org/TR/2001/REC-SVG-20010904/DTD/svg10.dtd">
<svg version="1.0" xmlns="http://www.w3.org/2000/svg"
 width="256.000000pt" height="256.000000pt" viewBox="0 0 256.000000 256.000000"
 preserveAspectRatio="xMidYMid meet">

<g transform="translate(0.000000,256.000000) scale(0.100000,-0.100000)"
fill="#667add" stroke="none">
<path d="M943 1794 c-307 -350 -562 -643 -567 -651 -5 -9 -4 -25 3 -39 l11
-24 370 0 c210 0 370 -4 370 -9 0 -5 -31 -201 -70 -435 -38 -235 -70 -439 -70
-454 0 -16 5 -33 12 -40 36 -36 44 -27 615 624 307 350 562 643 567 651 5 9 4
25 -3 39 l-11 24 -370 0 c-210 0 -370 4 -370 9 0 5 32 201 70 435 39 235 70
439 70 454 0 16 -5 33 -12 40 -36 36 -44 27 -615 -624z m501 399 c-2 -10 -31
-185 -64 -390 -48 -291 -59 -376 -50 -392 10 -21 18 -21 350 -21 187 0 340 -3
340 -7 0 -6 -404 -470 -868 -997 -18 -21 -35 -37 -36 -35 -2 2 26 177 61 389
48 292 61 390 54 408 l-11 22 -341 0 c-225 0 -340 3 -337 10 4 14 891 1028
900 1029 3 1 4 -7 2 -16z"/>
</g>
</svg>
