<?xml version="1.0" ?>
<svg style="enable-background:new 0 0 128 128;" 
version="1.1" viewBox="0 0 128 128" xml:space="preserve" xmlns="http://www.w3.org/2000/svg" 
xmlns:xlink="http://www.w3.org/1999/xlink"><g id="Layer_1"/>
<g id="refrigerator"/><g id="washer"/><g id="tv"><g><g>
<path d="M116,86H12c-3.309,0-6-2.691-6-6V26c0-3.309,2.691-6,6-6h104c3.309,0,6,2.691,6,6v54     
C122,83.309,119.309,86,116,86z M12,24c-1.103,0-2,0.897-2,2v54c0,1.103,0.897,2,2,2h104c1.103,0,2-0.897,2-2V26     
c0-1.103-0.897-2-2-2H12z" style="fill:#667add;"/>
</g><g><path d="M78,108.709H50c-1.104,0-2-0.896-2-2s0.896-2,2-2h28c1.104,0,2,0.896,2,2     
S79.104,108.709,78,108.709z" style="fill:#667add;"/></g><g><polygon points="70,107 66,107 66,86 62,86 62,107 58,107 58,82 70,82    " style="fill:#667add;"/></g></g></g><g id="microwawe"/><g id="vacuum_cleaner"/><g id="Gift"/><g id="umbrella"/><g id="rocket"/><g id="basket"/><g id="shopping"/><g id="email"/><g id="message"/><g id="delivery"/><g id="store"/><g id="label"/><g id="phone"/><g id="imac"/><g id="laptop"/><g id="heart_like"/><g id="game"/><g id="wallet"/><g id="camera"/><g id="battery"/><g id="shoes"/><g id="t-shirt"/><g id="pencil"/><g id="people"/><g id="statistics"/><g id="blog"/><g id="rock"/><g id="like"/><g id="dislike"/><g id="speaker"/><g id="pc"/><g id="glasses"/><g id="headphones"/><g id="player"/><g id="book"/><g id="transfer"/><g id="mouse"/><g id="package"/><g id="exellent"/><g id="card"/><g id="induction"/><g id="revers_camera"/><g id="flesh_drive"/><g id="time"/><g id="sale"/><g id="tablet"/><g id="search"/></svg>